# xmcd
#
# Track frame offsets: 
#        150
#        21615
#        39804
#        61492
#
# Disc length: 1061 seconds
#
# Revision: 0
# Processed by: cddbd v1.5.1PL0 Copyright (c) Steve Scherf et al.
# Submitted via: ExactAudioCopy v0.95a5
#
DISCID=2e042304
DTITLE=The Situation - The Situation EP
DYEAR=2004
DGENRE=Southern Rock
TTITLE0=The First Excitement
TTITLE1=Why'd You Come to Me
TTITLE2=This Rabbit Hole
TTITLE3=New Closer
EXTD=
EXTT0=
EXTT1=
EXTT2=
EXTT3=
PLAYORDER=
